#!OML:ASF H:\ManfredETheater\Project 1\Capture day 1\Session 1\subject.ASF
:FULLY-SPECIFIED
:DEGREES
63
root 4.23064 16.9013 20.2381 -171.058 -1.80197 182.426
lowerback 17.6682 -0.225461 5.5008
upperback -2.12843 1.10076 3.71366
thorax -12.3344 0.187539 0.717049
lowerneck -17.353 -1.38556 -2.42053
upperneck 6.36771 -1.36427 -0.511181
head 4.71258 -0.815031 0.101569
rclavicle -1.98785e-016 -1.27222e-014
rhumerus -20.2395 20.2386 -64.7706
rradius 108.676
rwrist -1.09859
rhand -26.1705 6.24336
rfingers 7.12502
rthumb 0.381098 -23.736
lclavicle -1.98785e-016 -1.27222e-014
lhumerus -12.4621 -13.0462 50.6308
lradius 108.048
lwrist 5.41667
lhand -24.1621 -13.3562
lfingers 7.12502
lthumb 2.32077 16.6109
rfemur -24.4741 -0.0708117 28.1322
rtibia 45.5549
rfoot -18.3988 -13.0877
rtoes -26.6212
lfemur -74.409 22.4353 -9.2357
ltibia 137.876
lfoot -7.47566 -22.3995
ltoes -6.94113
64
root 4.2222 17.1207 19.8438 -171.647 -2.37664 182.092
lowerback 17.5391 -0.18114 5.40677
upperback -2.11897 1.12478 3.46436
thorax -12.242 0.207041 0.481958
lowerneck -16.972 -1.65752 -2.60578
upperneck 7.2377 -1.65267 -0.513294
head 4.93003 -0.953309 0.104705
rclavicle 9.14409e-015 1.51076e-014
rhumerus -18.6019 20.2331 -61.5766
rradius 110.31
rwrist -1.32185
rhand -26.5296 6.54738
rfingers 7.12502
rthumb 0.0342636 -23.4324
lclavicle 9.14409e-015 1.51076e-014
lhumerus -11.0008 -12.4571 48.3416
lradius 106.807
lwrist 5.71423
lhand -24.1131 -12.6736
lfingers 7.12502
lthumb 2.36811 17.293
rfemur -20.8408 0.38525 27.6201
rtibia 42.4541
rfoot -16.334 -13.1201
rtoes -28.1671
lfemur -77.8691 20.6545 -10.1008
ltibia 137.168
lfoot -7.05876 -20.973
ltoes -6.52449
65
root 4.20945 17.362 19.4429 -172.281 -2.97823 181.763
lowerback 17.4425 -0.19433 5.32323
upperback -2.06344 1.07241 3.24813
thorax -12.1192 0.190297 0.299292
lowerneck -16.6382 -1.84383 -2.71607
upperneck 8.17626 -1.84028 -0.629297
head 5.17442 -1.05431 0.0676788
rclavicle 1.98785e-015 3.18055e-014
rhumerus -16.9646 19.9723 -58.4587
rradius 111.311
rwrist -1.64042
rhand -26.9813 6.70816
rfingers 7.12502
rthumb -0.401979 -23.2712
lclavicle 1.98785e-015 3.18055e-014
lhumerus -9.96259 -12.0976 46.4197
lradius 105.271
lwrist 5.68551
lhand -24.0072 -12.1735
lfingers 7.12502
lthumb 2.47045 17.792
rfemur -17.1402 1.00547 27.1417
rtibia 39.1553
rfoot -13.5735 -13.0131
rtoes -29.6251
lfemur -80.6703 18.5301 -10.7566
ltibia 135.945
lfoot -6.69177 -19.4056
ltoes -6.05604
66
root 4.19145 17.6244 19.0375 -172.948 -3.56455 181.455
lowerback 17.3956 -0.255091 5.26557
upperback -1.96283 0.961698 3.06517
thorax -11.977 0.144337 0.155258
lowerneck -16.3456 -1.9488 -2.74873
upperneck 9.15104 -1.93471 -0.831609
head 5.43471 -1.1199 -0.00193759
rclavicle -4.96962e-015 1.82882e-014
rhumerus -15.3454 19.5137 -55.5456
rradius 111.668
rwrist -2.08233
rhand -27.4564 6.67505
rfingers 7.12502
rthumb -0.860924 -23.303
lclavicle -4.96962e-015 1.82882e-014
lhumerus -9.32016 -11.9795 44.8631
lradius 103.507
lwrist 5.23907
lhand -23.8424 -11.8968
lfingers 7.12502
lthumb 2.62957 18.0668
rfemur -13.4636 1.73889 26.7196
rtibia 35.7306
rfoot -10.0561 -12.7524
rtoes -30.835
lfemur -82.8216 16.2709 -11.1917
ltibia 134.265
lfoot -6.40571 -17.8289
ltoes -5.47507
67
root 4.16746 17.9061 18.6302 -173.626 -4.08641 181.183
lowerback 17.395 -0.344945 5.24519
upperback -1.81561 0.819119 2.91399
thorax -11.8109 0.0807361 0.0341743
lowerneck -16.0946 -1.98035 -2.71226
upperneck 10.1335 -1.94678 -1.08281
head 5.70278 -1.15247 -0.0918991
rclavicle 1.19271e-015 0
rhumerus -13.7648 18.8989 -52.9368
rradius 111.386
rwrist -2.63641
rhand -27.8483 6.41932
rfingers 7.12502
rthumb -1.2394 -23.5568
lclavicle 1.19271e-015 0
lhumerus -9.02437 -12.0675 43.6852
lradius 101.573
lwrist 4.35248
lhand -23.6554 -11.8279
lfingers 7.12502
lthumb 2.81013 18.1334
rfemur -9.92794 2.5032 26.3564
rtibia 32.2843
rfoot -5.74275 -12.3529
rtoes -31.459
lfemur -84.3852 14.0581 -11.4339
ltibia 132.201
lfoot -6.20789 -16.3668
ltoes -4.82867
